<?xml version="1.0" encoding="UTF-8"?>
<svg id="Camada_1" xmlns="http://www.w3.org/2000/svg" xmlns:xlink="http://www.w3.org/1999/xlink" version="1.1" viewBox="0 0 1000 1000">
  <!-- Generator: Adobe Illustrator 30.1.0, SVG Export Plug-In . SVG Version: 2.1.1 Build 136)  -->
  <defs>
    <style>
      .st0 {
        fill: none;
      }

      .st1 {
        fill: url(#Gradiente_sem_nome_2);
      }

      .st2 {
        fill: #fff;
      }

      .st3 {
        fill: #ed7127;
      }

      .st4 {
        clip-path: url(#clippath);
      }
    </style>
    <clipPath id="clippath">
      <path class="st0" d="M181.24,501.31v-.17c-5-4.91-7.81-7.7-8.64-8.45.83.83,3.76,3.76,8.64,8.62"/>
    </clipPath>
    <linearGradient id="Gradiente_sem_nome_2" data-name="Gradiente sem nome 2" x1="-1227.26" y1="1040.56" x2="-1226.03" y2="1040.56" gradientTransform="translate(-9806.93 12266.35) rotate(90) scale(9.59 -9.59)" gradientUnits="userSpaceOnUse">
      <stop offset="0" stop-color="#ed7127"/>
      <stop offset=".15" stop-color="#e86f27"/>
      <stop offset=".29" stop-color="#dc6b28"/>
      <stop offset=".44" stop-color="#c86429"/>
      <stop offset=".59" stop-color="#ac5b2b"/>
      <stop offset=".74" stop-color="#874f2e"/>
      <stop offset=".89" stop-color="#5b4031"/>
      <stop offset="1" stop-color="#343434"/>
    </linearGradient>
  </defs>
  <g>
    <path class="st2" d="M912.83,349.32h-.47c0-80.44-.17-160.91.25-241.38.03-10-2.38-16.49-11.98-20.27-41.78-16.51-82.4-36.81-125.34-49.32C628.65-4.36,479.23-9.78,328.84,14.08c-79.7,12.65-156.9,34.66-228.7,72.93-8.34,4.47-12.92,9-12.9,19.77.39,153.09.11,306.19.36,459.28,0,15.55,1.35,31.26,3.84,46.61,12.76,78.84,51.47,143.95,108.58,198.3,85.58,81.43,186.29,139.84,293.37,187.94,4.5,2.02,11.96,1.02,16.62-1.35,44.21-22.4,89.06-43.82,131.97-68.57,66.72-38.47,129.32-82.9,180.85-141,54.79-61.74,89.11-132.52,89.86-216.63.66-74.01.14-148.01.14-222.05M818.5,245.38c-.08,31.7-.14,63.4-.14,95.13v.11c-.03,73.01.11,146.02.25,219.04.11,67.85-27.86,123.43-73.76,171.37-.86.88-2.29,1.21-4.83,2.54v-354.29c-30.16,31.15-60.28,62.3-90.44,93.45.08,115.9,0,260.43.39,323.86.08,11.63-3.09,18.86-13.2,24.19-8.42,4.42-16.18,10.05-26.9,16.84v-323.83c-30.54,31.56-61.08,63.15-91.62,94.74,0,95.35.06,226.44.06,269.79,0,10.66-9.22,20.93-18.47,20.71-9.89-.25-19.99-10.91-19.99-21.18-.03-32.94-.28-143.95-.19-229.39-17.62,18.2-35.24,36.42-52.85,54.65-16.54,17.09-21.04,18.42-36.51,3.78v130.75c-14.66-9.44-27.03-16.73-38.47-25.29-2.65-1.99-2.82-8.31-2.84-12.62-.11-19.99-.19-74.78-.22-133.52-34.79-34.16-65.31-64.18-90.74-89.19v154.09c-1.41.72-2.82,1.44-4.22,2.15-13.61-19.03-28.36-37.36-40.59-57.24-21.59-35.21-31.73-74.31-31.84-115.51-.06-19.74-.08-39.49-.11-59.21v-.17c-.11-109.85.16-219.7-.28-329.52-.06-12.87,4.22-18.58,15.68-23.03,114.76-44.32,233.86-58.65,355.95-51.67,85.24,4.91,168.78,18.78,248.67,50.78,12.87,5.16,17.59,11.27,17.51,25.82-.11,23.94-.22,47.91-.28,71.85"/>
    <path class="st3" d="M770.28,320.74c-.03,2.87-1.49,7.95-2.87,8.15-3.09.47-7.15-.66-9.75-2.57-15.33-11.38-15.33-11.6-28.33,1.85-97.45,100.68-194.9,201.42-292.3,302.15-14.88,15.41-18.31,15.77-33.44.94-59.07-57.91-106.62-104.71-138.43-136.08-.33-.33-.66-.66-.99-.97-.77-.8-1.46-1.55-2.1-2.24.52.52-.55-.52,0,0-1.02-1.02-.3-.39-1.1-1.24-.14-.14-.25-.28-.36-.39-2.43-2.68-3.95-4.8-4.58-6.79-.28-.77-.28-1.11-.28-1.11-.63-3.92,2.4-7.59,9-14.25,13.89-14.06,28.19-27.7,41.78-42.03,7.82-8.23,13.89-7.79,21.68.14,23.2,23.58,47,46.59,70.36,70,5.8,5.83,10.85,12.4,19.5,22.4,7.59-9.39,12.01-15.88,17.42-21.4,73.95-75.47,148.07-150.8,222.13-226.19,2.59-2.62,4.78-5.69,7.65-7.93,10.66-8.37,9.91-16.02-.72-23.69-2.6-1.85-5.74-3.98-6.79-6.68-2.46-6.46-5.16-14.66,6.24-14.86,32.61-.58,65.25-.77,97.86-.28,2.93.03,8.17,6.02,8.23,9.33.63,31.23.41,62.49.19,93.72"/>
  </g>
  <g class="st4">
    <rect class="st1" x="171.02" y="491.11" width="11.79" height="11.78" transform="translate(-224.8 155.05) rotate(-30)"/>
  </g>
  <path class="st2" d="M280.55,378.85h-23.81c-.37-3.38-1.07-6.85-1.08-10.31-.11-34.48-.5-68.97.23-103.43.14-6.47,3.35-14.34,7.82-19,22.91-23.87,46.57-47.03,70.34-70.05,3.22-3.12,8.57-5.73,12.95-5.74,88.27-.36,176.53-.31,264.8-.3,1.79,0,3.57.52,6.38.96v73.26h-24.03v-49.18h-235.57c0,19.65-.71,38.83.25,57.94.64,12.81-2.58,18.12-16.55,17.27-20.07-1.22-40.26-.31-61.73-.31v108.9ZM333.6,245.04v-30.95c.78,1.2,1.57,2.41,2.35,3.61-10.55,9.91-21.1,19.82-30.65,28.79,7.68-.39,17.58-.9,28.3-1.45"/>
  <rect class="st2" x="318.93" y="310.38" width="199.27" height="24.45"/>
  <rect class="st2" x="399.49" y="245.81" width="162.04" height="24.12"/>
</svg>