<?xml version="1.0" encoding="UTF-8"?>
<svg id="Camada_1" xmlns="http://www.w3.org/2000/svg" xmlns:xlink="http://www.w3.org/1999/xlink" version="1.1" viewBox="0 0 3595.28 841.89">
  <!-- Generator: Adobe Illustrator 30.1.0, SVG Export Plug-In . SVG Version: 2.1.1 Build 136)  -->
  <defs>
    <style>
      .st0 {
        fill: none;
      }

      .st1 {
        fill: url(#Gradiente_sem_nome);
      }

      .st2 {
        clip-path: url(#clippath-1);
      }

      .st3 {
        clip-path: url(#clippath-2);
      }

      .st4 {
        fill: #fff;
      }

      .st5 {
        clip-path: url(#clippath);
      }
    </style>
    <clipPath id="clippath">
      <rect class="st0" width="3595.28" height="841.89"/>
    </clipPath>
    <clipPath id="clippath-1">
      <path class="st0" d="M152.66,422.88v-.14c-4.07-4-6.36-6.27-7.04-6.88.68.67,3.06,3.06,7.04,7.02"/>
    </clipPath>
    <linearGradient id="Gradiente_sem_nome" data-name="Gradiente sem nome" x1="0" y1="841.89" x2="1" y2="841.89" gradientTransform="translate(-7928.52 414.58) rotate(90) scale(9.59 -9.59)" gradientUnits="userSpaceOnUse">
      <stop offset="0" stop-color="#ed7127"/>
      <stop offset=".15" stop-color="#e86f27"/>
      <stop offset=".29" stop-color="#dc6b28"/>
      <stop offset=".44" stop-color="#c86429"/>
      <stop offset=".59" stop-color="#ac5b2b"/>
      <stop offset=".74" stop-color="#874f2e"/>
      <stop offset=".89" stop-color="#5b4031"/>
      <stop offset="1" stop-color="#343434"/>
    </linearGradient>
    <clipPath id="clippath-2">
      <rect class="st0" width="3595.28" height="841.89"/>
    </clipPath>
  </defs>
  <g class="st5">
    <path class="st4" d="M748.38,299.11h-.38c0-65.5-.14-131.03.2-196.55.02-8.14-1.93-13.42-9.76-16.51-34.02-13.45-67.1-29.97-102.06-40.16C516.97,11.11,395.3,6.71,272.84,26.13c-64.9,10.3-127.77,28.22-186.23,59.38-6.79,3.64-10.52,7.33-10.5,16.1.32,124.66.09,249.32.29,373.98,0,12.66,1.1,25.45,3.13,37.96,10.39,64.2,41.91,117.22,88.41,161.47,69.68,66.31,151.69,113.87,238.89,153.04,3.67,1.64,9.74.83,13.54-1.1,36-18.24,72.52-35.68,107.46-55.83,54.33-31.32,105.3-67.5,147.26-114.81,44.61-50.28,72.56-107.91,73.17-176.4.54-60.26.11-120.52.11-180.81M671.56,214.48c-.07,25.81-.11,51.63-.11,77.46v.09c-.02,59.45.09,118.9.2,178.36.09,55.25-22.69,100.51-60.06,139.55-.7.72-1.87.99-3.93,2.07v-288.49c-24.56,25.36-49.09,50.73-73.64,76.09.07,94.37,0,212.06.32,263.71.07,9.47-2.52,15.36-10.75,19.7-6.86,3.6-13.18,8.18-21.9,13.72v-263.69c-24.87,25.7-49.74,51.43-74.61,77.15,0,77.64.05,184.39.05,219.69,0,8.68-7.51,17.04-15.04,16.86-8.05-.2-16.28-8.88-16.28-17.25-.02-26.82-.23-117.22-.16-186.79-14.35,14.82-28.69,29.66-43.04,44.5-13.47,13.92-17.13,15-29.73,3.08v106.47c-11.94-7.69-22.01-13.63-31.32-20.6-2.16-1.62-2.29-6.77-2.32-10.28-.09-16.28-.16-60.89-.18-108.72-28.33-27.82-53.18-52.26-73.89-72.63v125.47c-1.15.58-2.29,1.17-3.44,1.75-11.09-15.49-23.09-30.42-33.05-46.61-17.58-28.67-25.84-60.51-25.93-94.06-.05-16.08-.07-32.16-.09-48.21v-.13c-.09-89.45.13-178.9-.22-268.32-.05-10.48,3.44-15.13,12.77-18.75,93.45-36.09,190.43-47.76,289.84-42.07,69.41,4,137.43,15.29,202.48,41.35,10.48,4.21,14.32,9.17,14.26,21.03-.09,19.49-.18,39.01-.22,58.51"/>
    <path class="st4" d="M632.3,275.84c-.02,2.34-1.21,6.48-2.34,6.63-2.52.38-5.82-.54-7.94-2.09-12.48-9.26-12.48-9.44-23.07,1.51-79.35,81.98-158.71,164.01-238.01,246.04-12.12,12.55-14.91,12.84-27.23.77-48.1-47.15-86.82-85.27-112.72-110.81-.27-.27-.54-.54-.81-.79-.63-.65-1.19-1.26-1.71-1.82.43.43-.45-.43,0,0-.83-.83-.25-.32-.9-1.01-.11-.11-.2-.23-.29-.32-1.98-2.18-3.21-3.91-3.73-5.53-.23-.63-.23-.9-.23-.9-.52-3.19,1.96-6.18,7.33-11.6,11.31-11.45,22.96-22.55,34.02-34.22,6.36-6.7,11.31-6.34,17.65.11,18.89,19.2,38.27,37.93,57.29,57,4.72,4.75,8.84,10.1,15.88,18.24,6.18-7.64,9.78-12.93,14.19-17.43,60.22-61.45,120.57-122.8,180.88-184.18,2.11-2.14,3.89-4.63,6.23-6.45,8.68-6.81,8.07-13.04-.58-19.29-2.11-1.51-4.68-3.24-5.53-5.44-2-5.26-4.21-11.94,5.08-12.1,26.56-.47,53.13-.63,79.69-.22,2.38.02,6.66,4.9,6.7,7.6.52,25.43.34,50.89.16,76.32"/>
  </g>
  <g class="st2">
    <rect class="st1" x="144.34" y="414.57" width="9.6" height="9.6" transform="translate(-189.7 130.75) rotate(-30)"/>
  </g>
  <g class="st3">
    <path class="st4" d="M233.52,323.16h-19.39c-.3-2.76-.87-5.58-.88-8.4-.09-28.08-.41-56.16.19-84.22.11-5.27,2.73-11.68,6.37-15.47,18.66-19.43,37.92-38.3,57.28-57.04,2.63-2.54,6.98-4.66,10.54-4.68,71.87-.29,143.75-.25,215.62-.25,1.45,0,2.91.43,5.2.78v59.66h-19.57v-40.05h-191.82c0,16-.58,31.62.2,47.18.52,10.43-2.1,14.76-13.48,14.06-16.34-1-32.79-.25-50.27-.25v88.68ZM276.72,214.2v-25.21c.64.98,1.28,1.96,1.92,2.94-8.59,8.07-17.18,16.14-24.96,23.45,6.25-.32,14.31-.73,23.04-1.18"/>
    <rect class="st4" x="264.77" y="267.41" width="162.27" height="19.91"/>
    <rect class="st4" x="330.38" y="214.83" width="131.95" height="19.64"/>
    <path class="st4" d="M824.87,575.43V110.44h146.13c35.87,0,65.53,5.88,89.02,17.6,23.47,11.74,40.74,27.68,51.81,47.83,11.07,20.16,16.61,43.08,16.61,68.75s-5.54,48.06-16.61,68.42c-11.07,20.37-28.23,36.53-51.48,48.49-23.25,11.95-53.04,17.93-89.35,17.93h-99.64v195.96h-46.5ZM871.37,339.61h99.64c39.41,0,67.53-8.52,84.36-25.57,16.83-17.05,25.24-40.19,25.24-69.42s-8.42-53.47-25.24-70.08c-16.83-16.61-44.95-24.91-84.36-24.91h-99.64v189.98Z"/>
    <path class="st4" d="M1206.16,575.43V110.44h143.48c35.87,0,65.2,5.98,88.01,17.94,22.8,11.96,39.52,28.01,50.15,48.15,10.62,20.16,15.94,43.08,15.94,68.76s-5.54,47.49-16.61,68.09c-11.07,20.59-28.13,36.98-51.15,49.15-23.03,12.19-52.92,18.26-89.67,18.26h-93.66v194.63h-46.5ZM1252.65,342.93h93.66c37.64,0,65.32-9.07,83.03-27.23,17.71-18.16,26.57-41.62,26.57-70.41s-8.64-53.03-25.91-70.08c-17.27-17.04-45.4-25.57-84.36-25.57h-93v193.3ZM1453.26,575.43l-104.29-209.24h53.14l106.94,209.24h-55.79Z"/>
    <polygon class="st4" points="1596.07 575.43 1596.07 110.44 1878.38 110.44 1878.38 148.97 1642.56 148.97 1642.56 322.34 1858.45 322.34 1858.45 360.87 1642.56 360.87 1642.56 536.9 1878.38 536.9 1878.38 575.43 1596.07 575.43"/>
    <path class="st4" d="M2168.66,583.4c-44.73,0-83.48-10.07-116.25-30.23-32.78-20.15-58.01-48.26-75.72-84.36-17.72-36.08-26.57-78.05-26.57-125.88s8.85-89.78,26.57-125.87c17.71-36.09,43.06-64.21,76.05-84.36,32.99-20.15,71.63-30.23,115.92-30.23,52.25,0,94.66,12.29,127.21,36.87,32.55,24.58,53.47,59.23,62.77,103.96h-51.15c-7.09-30.11-22.15-54.36-45.17-72.74-23.03-18.37-54.25-27.56-93.66-27.56-34.1,0-64,7.97-89.67,23.91-25.69,15.95-45.62,38.86-59.78,68.75-14.18,29.9-21.26,65.66-21.26,107.28s7.08,77.38,21.26,107.28c14.16,29.89,34.09,52.8,59.78,68.75,25.67,15.94,55.57,23.92,89.67,23.92,39.41,0,70.52-9.07,93.33-27.24,22.8-18.15,37.97-42.07,45.5-71.74h51.15c-9.74,43.84-30.67,78.05-62.77,102.63-32.11,24.57-74.51,36.87-127.21,36.87"/>
    <rect class="st4" x="2443" y="110.44" width="46.5" height="464.98"/>
    <polygon class="st4" points="2587.14 575.43 2587.14 110.44 2890.04 110.44 2890.04 182.85 2676.82 182.85 2676.82 307.06 2847.53 307.06 2847.53 377.47 2676.82 377.47 2676.82 575.43 2587.14 575.43"/>
    <rect class="st4" x="2956.47" y="110.44" width="89.68" height="464.98"/>
    <polygon class="st4" points="3113.22 575.43 3260.03 339.61 3111.24 110.44 3214.86 110.44 3317.15 269.2 3410.81 110.44 3511.79 110.44 3366.31 343.6 3515.77 575.43 3412.15 575.43 3309.19 414.01 3214.86 575.43 3113.22 575.43"/>
  </g>
</svg>